<?xml version="1.0" encoding="utf-8"?>
<!-- Generator: Adobe Illustrator 15.1.0, SVG Export Plug-In . SVG Version: 6.00 Build 0)  -->
<!DOCTYPE svg PUBLIC "-//W3C//DTD SVG 1.1//EN" "http://www.w3.org/Graphics/SVG/1.1/DTD/svg11.dtd">
<svg version="1.1" id="Layer_1" xmlns="http://www.w3.org/2000/svg" xmlns:xlink="http://www.w3.org/1999/xlink" x="0px" y="0px"
	 width="113.386px" height="113.386px" viewBox="0 0 113.386 113.386" enable-background="new 0 0 113.386 113.386"
	 xml:space="preserve">
<path fill-rule="evenodd" clip-rule="evenodd" fill="#FFFFFF" d="M78.752,52.163h-5.015c0.365,1.418,0.581,2.9,0.581,4.432
	c0,9.79-7.934,17.724-17.722,17.724c-9.788,0-17.722-7.935-17.722-17.724c0-1.532,0.217-3.014,0.582-4.432h-5.015v24.371
	c0,1.222,0.993,2.214,2.218,2.214h39.875c1.226,0,2.218-0.992,2.218-2.214V52.163z M78.752,36.656c0-1.223-0.992-2.215-2.218-2.215
	H69.89c-1.224,0-2.215,0.992-2.215,2.215v6.647c0,1.223,0.991,2.215,2.215,2.215h6.645c1.226,0,2.218-0.992,2.218-2.215V36.656z
	 M56.597,45.519c-6.118,0-11.077,4.958-11.077,11.076c0,6.117,4.959,11.079,11.077,11.079s11.078-4.962,11.078-11.079
	C67.675,50.477,62.715,45.519,56.597,45.519 M78.752,85.396H34.441c-3.669,0-6.645-2.977-6.645-6.648V34.441
	c0-3.67,2.975-6.645,6.645-6.645h44.311c3.67,0,6.645,2.975,6.645,6.645v44.307C85.396,82.419,82.422,85.396,78.752,85.396"/>
</svg>
